<?xml version="1.0" encoding="UTF-8"?>
<svg version="1.1" xmlns="http://www.w3.org/2000/svg" width="740" height="664">
<path d="M0 0 C244.2 0 488.4 0 740 0 C740 219.12 740 438.24 740 664 C495.8 664 251.6 664 0 664 C0 444.88 0 225.76 0 0 Z " fill="#0E14D3" transform="translate(0,0)"/>
<path d="M0 0 C0.87015244 -0.0071553 1.74030487 -0.01431061 2.63682556 -0.02168274 C3.59927185 -0.02437164 4.56171814 -0.02706055 5.55332947 -0.02983093 C7.0658152 -0.03968773 7.0658152 -0.03968773 8.6088562 -0.04974365 C11.96787078 -0.06955333 15.32684022 -0.08116399 18.68589783 -0.09111023 C19.83446196 -0.09518576 20.98302608 -0.09926128 22.16639519 -0.10346031 C28.26021522 -0.12436613 34.35401252 -0.13864116 40.44786072 -0.147995 C46.71170343 -0.15899322 52.97518435 -0.19330335 59.23890018 -0.23316669 C64.0768901 -0.25947797 68.91479634 -0.26770027 73.75285149 -0.27127647 C76.05904486 -0.27611493 78.36523519 -0.28764952 80.67135811 -0.30631447 C96.68782576 -0.42775524 111.85341302 0.13608063 126.33824158 7.83467102 C127.32618713 8.34731506 127.32618713 8.34731506 128.33409119 8.87031555 C142.38494949 16.46993429 151.856473 29.38884414 157.07652283 44.33467102 C159.6466496 55.38508395 159.4831567 68.1187538 153.96324158 78.14717102 C153.30968689 79.60316711 153.30968689 79.60316711 152.64292908 81.08857727 C147.02178072 93.35988201 139.38193172 100.16273888 127.96324158 107.14717102 C129.05636658 107.49779602 130.14949158 107.84842102 131.27574158 108.20967102 C145.10125042 113.45214792 157.3986079 123.8782306 163.96324158 137.14717102 C167.77968732 147.10716356 169.29035673 156.53929402 168.96324158 167.14717102 C168.94648376 168.01471008 168.92972595 168.88224915 168.91246033 169.77607727 C168.07286007 186.25623087 158.75626811 201.5370584 147.02183533 212.70185852 C135.90433325 221.59018075 122.45093941 224.7599678 108.77183533 227.49873352 C106.07328385 227.86049114 106.07328385 227.86049114 104.96324158 229.14717102 C103.56370535 229.24479067 102.15928415 229.27348757 100.75634766 229.27415466 C99.84913467 229.27697449 98.94192169 229.27979431 98.00721741 229.28269958 C97.00407501 229.28067535 96.00093262 229.27865112 94.96739197 229.27656555 C93.39191338 229.27919403 93.39191338 229.27919403 91.78460693 229.28187561 C88.29335403 229.28629685 84.8021513 229.28335497 81.31089783 229.27998352 C78.89573151 229.28065653 76.48056526 229.28162653 74.06539917 229.28288269 C68.99528867 229.28436007 63.92519574 229.282204 58.85508728 229.27754211 C52.34339274 229.27184785 45.83173944 229.27512167 39.32004642 229.28111458 C34.32993253 229.28472169 29.33982847 229.28358085 24.34971428 229.28098679 C21.9482415 229.28031778 19.54676784 229.28114504 17.1452961 229.28346634 C13.79300179 229.28599497 10.44077498 229.28214909 7.08848572 229.27656555 C6.08736755 229.27858978 5.08624939 229.28061401 4.05479431 229.28269958 C2.6897451 229.27846985 2.6897451 229.27846985 1.29711914 229.27415466 C0.50383241 229.27377764 -0.28945433 229.27340061 -1.10678005 229.27301216 C-3.03675842 229.14717102 -3.03675842 229.14717102 -5.03675842 228.14717102 C-5.05954858 199.2457364 -5.07725649 170.34430283 -5.08782375 141.44286099 C-5.08907453 138.03432044 -5.09036884 134.62577991 -5.09169006 131.21723938 C-5.09195237 130.53863214 -5.09221468 129.86002489 -5.09248494 129.1608538 C-5.09684167 118.15873183 -5.10472924 107.15661507 -5.11391122 96.1544962 C-5.12324768 84.87357806 -5.12873912 73.59266253 -5.13084692 62.31174034 C-5.13215445 55.97194688 -5.13524299 49.63216524 -5.14248848 43.29237556 C-5.14924475 37.33271474 -5.15137619 31.37307066 -5.1498661 25.41340637 C-5.15014261 23.219135 -5.15215005 21.0248631 -5.1559639 18.83059502 C-5.16089501 15.84878346 -5.15975887 12.86703624 -5.15701294 9.88522339 C-5.15992578 9.00489097 -5.16283862 8.12455855 -5.16583973 7.21754938 C-5.1477844 0.02894686 -5.1477844 0.02894686 0 0 Z " fill="#FBFBFE" transform="translate(257.03675842285156,212.8528289794922)"/>
<path d="M0 0 C1.83462794 0.79267338 1.83462794 0.79267338 3.7265625 1.3828125 C22.17867049 7.45896119 34.48517434 22.2703152 43.01953125 38.94921875 C45.53132007 44.05208912 47.34625924 49.28824058 48.84765625 54.76953125 C49.06035156 55.53523438 49.27304687 56.3009375 49.4921875 57.08984375 C54.0436314 75.36110775 53.41309166 97.38175113 49.84765625 115.76953125 C49.55568359 117.29320312 49.55568359 117.29320312 49.2578125 118.84765625 C44.81268282 138.9427987 33.84447725 156.30163403 16.91015625 168.08203125 C11.71813954 171.3842585 6.70057798 173.89391685 0.84765625 175.76953125 C-0.79783203 176.32640625 -0.79783203 176.32640625 -2.4765625 176.89453125 C-21.46431723 182.70587382 -43.39090051 180.80041 -61.15234375 171.76953125 C-81.61648571 159.39702164 -94.20564217 141.02360836 -100.12695312 117.94628906 C-101.96848315 109.67250104 -101.78332821 101.27796608 -101.6394043 92.84472656 C-101.58954129 89.87652682 -101.57787685 86.90998979 -101.57226562 83.94140625 C-101.51537792 74.37988058 -101.22290863 65.14456252 -99.15234375 55.76953125 C-98.9613208 54.77953125 -98.77029785 53.78953125 -98.57348633 52.76953125 C-95.89078694 39.26129437 -89.08179205 27.22291011 -79.15234375 17.76953125 C-78.42015625 17.0528125 -77.68796875 16.33609375 -76.93359375 15.59765625 C-57.40303255 -2.69505248 -25.21950988 -10.51244457 0 0 Z " fill="#0F14D3" transform="translate(591.15234375,239.23046875)"/>
<path d="M0 0 C2.48364501 0.01075171 4.96657175 0.0000362 7.45019531 -0.01269531 C17.49208255 -0.0215669 26.08578003 0.58291802 35.57128906 4.35449219 C37.32339303 5.04934368 39.08924424 5.70961566 40.86035156 6.35449219 C52.2249636 10.54074834 61.76602976 15.91184174 71.32519531 23.30761719 C73.11939788 24.69203275 74.97083332 26.00366752 76.85644531 27.26074219 C76.85644531 27.92074219 76.85644531 28.58074219 76.85644531 29.26074219 C77.51644531 29.26074219 78.17644531 29.26074219 78.85644531 29.26074219 C78.85644531 29.92074219 78.85644531 30.58074219 78.85644531 31.26074219 C79.51644531 31.26074219 80.17644531 31.26074219 80.85644531 31.26074219 C92.50054556 43.71992945 100.4728082 58.158773 105.85644531 74.26074219 C106.1903125 75.123125 106.52417969 75.98550781 106.86816406 76.87402344 C108.27812333 81.70578108 108.80804484 86.58583777 109.41894531 91.57324219 C109.66645371 93.56980989 109.91755545 95.56593658 110.17285156 97.56152344 C110.28056885 98.43977783 110.38828613 99.31803223 110.49926758 100.22290039 C110.65331414 102.24908234 110.65331414 102.24908234 111.85644531 103.26074219 C112.07796661 107.45885005 112.04222909 111.66331901 112.04174805 115.86669922 C112.04389383 117.96050631 112.06192156 120.05375018 112.08105469 122.14746094 C112.12669616 133.11445476 111.23095672 143.76226226 107.85644531 154.26074219 C107.49292969 155.58525391 107.49292969 155.58525391 107.12207031 156.93652344 C99.40560992 184.11335543 83.95789663 207.74620182 59.31347656 222.37792969 C49.68273304 227.62314819 39.47041979 231.52004455 28.85644531 234.26074219 C28.19136963 234.43879395 27.52629395 234.6168457 26.84106445 234.80029297 C19.31388048 236.58160181 11.77280265 236.63299181 4.08227539 236.63134766 C1.82196754 236.63568837 -0.43632892 236.67201982 -2.69628906 236.70996094 C-30.8728969 236.92796808 -55.62709948 225.25939786 -75.83105469 205.88574219 C-92.05252217 189.14564874 -101.65689433 167.79589769 -105.60058594 145.04199219 C-105.8547558 142.36336832 -105.8547558 142.36336832 -107.14355469 141.26074219 C-107.23642729 139.84849173 -107.26102241 138.43165284 -107.25708008 137.01635742 C-107.25700455 136.11549911 -107.25692902 135.21464081 -107.2568512 134.28648376 C-107.25168991 133.30732498 -107.24652863 132.3281662 -107.24121094 131.31933594 C-107.23979599 130.32192886 -107.23838104 129.32452179 -107.23692322 128.29689026 C-107.23130583 125.09731095 -107.2187504 121.8978005 -107.20605469 118.69824219 C-107.20104193 116.53483174 -107.19647863 114.37142019 -107.19238281 112.20800781 C-107.18133076 106.89222893 -107.16457572 101.57649048 -107.14355469 96.26074219 C-106.48355469 96.26074219 -105.82355469 96.26074219 -105.14355469 96.26074219 C-105.18996094 95.71289062 -105.23636719 95.16503906 -105.28417969 94.60058594 C-105.83940365 82.40548809 -101.52645148 71.01002381 -96.14355469 60.26074219 C-95.76457031 59.431875 -95.38558594 58.60300781 -94.99511719 57.74902344 C-84.47661653 35.26484585 -64.17356784 16.57051868 -41.34667969 7.03027344 C-37.73058564 5.76720513 -34.04659829 4.79774886 -30.33105469 3.87402344 C-28.1843422 3.4648539 -28.1843422 3.4648539 -27.14355469 2.26074219 C-18.28360142 -0.26131475 -9.12158353 -0.04699984 0 0 Z M-49.14355469 45.26074219 C-50.40619141 46.40349609 -50.40619141 46.40349609 -51.69433594 47.56933594 C-67.02502201 62.12780967 -73.72757016 82.31770376 -74.33642578 103.12768555 C-74.42574056 107.81032801 -74.46552395 112.49362381 -74.49365234 117.17700195 C-74.51012208 119.17516805 -74.53729151 121.17327746 -74.57568359 123.17114258 C-75.04138145 147.64457733 -69.42788398 170.08393462 -52.14355469 188.26074219 C-36.78108993 204.02075687 -17.87047837 210.27266546 3.73144531 210.63574219 C12.29134577 210.62762597 19.73189506 209.05154815 27.85644531 206.26074219 C28.90445313 205.91011719 29.95246094 205.55949219 31.03222656 205.19824219 C48.25242591 198.76579418 61.31584661 185.07067052 69.55175781 168.94042969 C80.56671529 144.64110139 81.53100764 116.28346495 76.85644531 90.26074219 C76.59927734 88.75640625 76.59927734 88.75640625 76.33691406 87.22167969 C73.82265583 75.18568219 68.0129282 62.51163924 59.85644531 53.26074219 C59.27507812 52.53886719 58.69371094 51.81699219 58.09472656 51.07324219 C48.96658661 40.11206804 37.80820033 33.2543655 24.07910156 29.87402344 C21.85644531 29.26074219 21.85644531 29.26074219 20.85644531 28.26074219 C-3.57690452 22.48941645 -30.42534923 28.15799161 -49.14355469 45.26074219 Z " fill="#FCFCFE" transform="translate(564.1435546875,208.7392578125)"/>
<path d="M0 0 C10.23 0 20.46 0 31 0 C31 66 31 132 31 200 C67.1110914 199.96038941 67.1110914 199.96038941 103.22216797 199.90991211 C110.19555664 199.90539551 110.19555664 199.90539551 113.45681763 199.90455627 C115.74173171 199.9030175 118.02664497 199.89949394 120.31155396 199.89442444 C123.76614805 199.88714084 127.22069239 199.88609279 130.67529297 199.88647461 C131.69861662 199.8828765 132.72194027 199.87927839 133.77627373 199.87557125 C134.70264704 199.87694875 135.62902035 199.87832624 136.58346558 199.87974548 C137.39279982 199.87882369 138.20213406 199.8779019 139.03599358 199.87695217 C141 200 141 200 143 201 C143 209.91 143 218.82 143 228 C140.36549057 229.31725471 138.40940539 229.12590116 135.45800781 229.12698364 C133.69124695 229.13121338 133.69124695 229.13121338 131.88879395 229.13552856 C129.94063782 229.13249222 129.94063782 229.13249222 127.953125 229.12939453 C126.57678175 229.13074899 125.20043887 229.13252917 123.82409668 229.13470459 C120.08038957 229.13927365 116.33670993 229.13749152 112.59300232 229.1343255 C108.68081588 229.13179919 104.76863184 229.1341402 100.85644531 229.13571167 C94.28580298 229.13753257 87.71517188 229.13512914 81.14453125 229.13037109 C73.54077377 229.12492863 65.93704311 229.12669134 58.33328629 229.1321975 C51.81267186 229.13673089 45.29206553 229.13737807 38.77145004 229.13475883 C34.87354849 229.1331973 30.97565954 229.1329989 27.07775879 229.13629532 C23.41376995 229.1391773 19.74981577 229.13719229 16.08583069 229.13140106 C14.09428963 229.12944119 12.10274566 229.1324246 10.11120605 229.13552856 C8.93336548 229.13270874 7.7555249 229.12988892 6.54199219 229.12698364 C5.51402527 229.12660662 4.48605835 229.12622959 3.42694092 229.12584114 C1 229 1 229 -1 228 C-1.02279016 199.09856538 -1.04049807 170.19713181 -1.05106533 141.29568997 C-1.0523161 137.88714942 -1.05361042 134.47860889 -1.05493164 131.07006836 C-1.05519395 130.39146112 -1.05545626 129.71285387 -1.05572652 129.01368278 C-1.06008325 118.01156081 -1.06797081 107.00944405 -1.0771528 96.00732518 C-1.08648925 84.72640704 -1.09198069 73.44549151 -1.09408849 62.16456932 C-1.09539603 55.82477586 -1.09848456 49.48499422 -1.10573006 43.14520454 C-1.11248633 37.18554372 -1.11461777 31.22589964 -1.11310768 25.26623535 C-1.11338419 23.07196398 -1.11539163 20.87769207 -1.11920547 18.683424 C-1.12413659 15.70161244 -1.12300045 12.71986522 -1.12025452 9.73805237 C-1.12316736 8.85771995 -1.1260802 7.97738752 -1.12908131 7.07037836 C-1.11412121 1.11412121 -1.11412121 1.11412121 0 0 Z " fill="#F8FAFE" transform="translate(76,213)"/>
<path d="M0 0 C17.758125 -0.061875 17.758125 -0.061875 35.875 -0.125 C41.45510986 -0.15231201 41.45510986 -0.15231201 47.14794922 -0.18017578 C51.73657227 -0.18920898 51.73657227 -0.18920898 53.89358521 -0.19088745 C55.38065797 -0.19393236 56.86772621 -0.20091118 58.35476685 -0.21115112 C73.28760353 -0.30872313 85.92931506 1.0949281 98.375 10.25 C106.42272737 18.68095248 108.19643961 26.4331232 108.25 37.6875 C108.270625 38.75162109 108.29125 39.81574219 108.3125 40.91210938 C108.35391928 49.29433563 107.21189055 55.7012971 101.9375 62.5 C101.43089844 63.1703125 100.92429687 63.840625 100.40234375 64.53125 C99.93957031 65.0159375 99.47679687 65.500625 99 66 C98.34 66 97.68 66 97 66 C97 66.66 97 67.32 97 68 C95.17215398 68.96875839 93.33739059 69.92446873 91.5 70.875 C90.4790625 71.40867187 89.458125 71.94234375 88.40625 72.4921875 C81.97255148 75.34013203 76.01321635 76.29976073 69.0234375 76.22705078 C67.89514778 76.22748886 67.89514778 76.22748886 66.74406433 76.22793579 C64.28758721 76.22655584 61.83142334 76.21105852 59.375 76.1953125 C57.66007655 76.19157761 55.94515096 76.18873289 54.23022461 76.18673706 C49.73889163 76.17913809 45.2476901 76.15952209 40.75640869 76.1373291 C35.35564388 76.1131721 29.95483487 76.10407188 24.55403137 76.09242249 C16.36926311 76.07309521 8.1847827 76.03474672 0 76 C0 50.92 0 25.84 0 0 Z " fill="#0F15D3" transform="translate(284,337)"/>
<path d="M0 0 C16.98830902 -0.12032643 16.98830902 -0.12032643 24.296875 -0.14648438 C29.26051601 -0.16433462 34.22398913 -0.18532304 39.1875 -0.22631836 C43.1945961 -0.25920267 47.20151185 -0.27691345 51.2087326 -0.28463173 C52.72835881 -0.2901236 54.24797649 -0.30084592 55.76752472 -0.31719017 C68.52541517 -0.44880614 80.14666903 0.04242639 90 9 C91.36125 10.11375 91.36125 10.11375 92.75 11.25 C99.4901722 19.48798824 100.37569307 29.60477857 99.8515625 39.921875 C98.77383752 48.39997819 94.55635944 54.34752274 88.6875 60.375 C71.15063541 70.97868557 48.63149472 68.2446784 29 68.125 C14.645 68.063125 14.645 68.063125 0 68 C0 45.56 0 23.12 0 0 Z " fill="#0F15D3" transform="translate(284,241)"/>
</svg>
